M48
; DRILL file {KiCad 8.0.0} date 2024-03-18T00:14:22+0530
; FORMAT={-:-/ absolute / inch / decimal}
; #@! TF.CreationDate,2024-03-18T00:14:22+05:30
; #@! TF.GenerationSoftware,Kicad,Pcbnew,8.0.0
; #@! TF.FileFunction,Plated,1,2,PTH
FMAT,2
INCH
; #@! TA.AperFunction,Plated,PTH,ViaDrill
T1C0.0118
; #@! TA.AperFunction,Plated,PTH,ComponentDrill
T2C0.0217
; #@! TA.AperFunction,Plated,PTH,ComponentDrill
T3C0.0335
; #@! TA.AperFunction,Plated,PTH,ComponentDrill
T4C0.0394
%
G90
G05
T1
X0.9055Y-0.9606
X0.937Y-1.1654
X1.0472Y-0.8661
X1.0787Y-1.2362
X1.1339Y-1.4094
X1.2598Y-0.9646
X1.2695Y-1.2121
X1.4646Y-1.6457
X1.4882Y-1.3937
X1.5197Y-0.8819
X1.6693Y-1.1014
X1.7795Y-1.2992
X1.8644Y-0.986
T4
X1.0543Y-0.7751
X1.0992Y-1.752
X1.1543Y-0.7751
X1.1992Y-1.752
X1.2543Y-0.7751
X1.2992Y-1.752
X1.3543Y-0.7751
X1.3992Y-1.752
X1.513Y-0.7751
X1.613Y-0.7751
X1.713Y-0.7751
X1.813Y-0.7751
T2
G00X2.0541Y-0.9365
M15
G01X2.0797Y-0.9365
M16
G05
G00X2.0541Y-1.2416
M15
G01X2.0797Y-1.2416
M16
G05
T3
G00X1.9065Y-0.9424
M15
G01X1.9281Y-0.9424
M16
G05
G00X1.9065Y-1.2357
M15
G01X1.9281Y-1.2357
M16
G05
M30
