%TF.GenerationSoftware,KiCad,Pcbnew,8.0.0*%
%TF.CreationDate,2024-03-18T00:14:30+05:30*%
%TF.ProjectId,STM,53544d2e-6b69-4636-9164-5f7063625858,rev?*%
%TF.SameCoordinates,Original*%
%TF.FileFunction,Soldermask,Top*%
%TF.FilePolarity,Negative*%
%FSLAX46Y46*%
G04 Gerber Fmt 4.6, Leading zero omitted, Abs format (unit mm)*
G04 Created by KiCad (PCBNEW 8.0.0) date 2024-03-18 00:14:30*
%MOMM*%
%LPD*%
G01*
G04 APERTURE LIST*
G04 Aperture macros list*
%AMRoundRect*
0 Rectangle with rounded corners*
0 $1 Rounding radius*
0 $2 $3 $4 $5 $6 $7 $8 $9 X,Y pos of 4 corners*
0 Add a 4 corners polygon primitive as box body*
4,1,4,$2,$3,$4,$5,$6,$7,$8,$9,$2,$3,0*
0 Add four circle primitives for the rounded corners*
1,1,$1+$1,$2,$3*
1,1,$1+$1,$4,$5*
1,1,$1+$1,$6,$7*
1,1,$1+$1,$8,$9*
0 Add four rect primitives between the rounded corners*
20,1,$1+$1,$2,$3,$4,$5,0*
20,1,$1+$1,$4,$5,$6,$7,0*
20,1,$1+$1,$6,$7,$8,$9,0*
20,1,$1+$1,$8,$9,$2,$3,0*%
G04 Aperture macros list end*
%ADD10R,0.800000X1.000000*%
%ADD11C,0.900000*%
%ADD12R,1.500000X0.700000*%
%ADD13C,2.200000*%
%ADD14RoundRect,0.140000X0.140000X0.170000X-0.140000X0.170000X-0.140000X-0.170000X0.140000X-0.170000X0*%
%ADD15RoundRect,0.135000X0.185000X-0.135000X0.185000X0.135000X-0.185000X0.135000X-0.185000X-0.135000X0*%
%ADD16RoundRect,0.218750X0.256250X-0.218750X0.256250X0.218750X-0.256250X0.218750X-0.256250X-0.218750X0*%
%ADD17RoundRect,0.250000X0.475000X-0.250000X0.475000X0.250000X-0.475000X0.250000X-0.475000X-0.250000X0*%
%ADD18RoundRect,0.218750X-0.218750X-0.256250X0.218750X-0.256250X0.218750X0.256250X-0.218750X0.256250X0*%
%ADD19RoundRect,0.140000X0.170000X-0.140000X0.170000X0.140000X-0.170000X0.140000X-0.170000X-0.140000X0*%
%ADD20RoundRect,0.375000X-0.625000X-0.375000X0.625000X-0.375000X0.625000X0.375000X-0.625000X0.375000X0*%
%ADD21RoundRect,0.500000X-0.500000X-1.400000X0.500000X-1.400000X0.500000X1.400000X-0.500000X1.400000X0*%
%ADD22O,1.700000X1.700000*%
%ADD23R,1.700000X1.700000*%
%ADD24RoundRect,0.140000X-0.170000X0.140000X-0.170000X-0.140000X0.170000X-0.140000X0.170000X0.140000X0*%
%ADD25RoundRect,0.135000X-0.135000X-0.185000X0.135000X-0.185000X0.135000X0.185000X-0.135000X0.185000X0*%
%ADD26RoundRect,0.225000X-0.250000X0.225000X-0.250000X-0.225000X0.250000X-0.225000X0.250000X0.225000X0*%
%ADD27RoundRect,0.140000X-0.140000X-0.170000X0.140000X-0.170000X0.140000X0.170000X-0.140000X0.170000X0*%
%ADD28RoundRect,0.075000X-0.662500X-0.075000X0.662500X-0.075000X0.662500X0.075000X-0.662500X0.075000X0*%
%ADD29RoundRect,0.075000X-0.075000X-0.662500X0.075000X-0.662500X0.075000X0.662500X-0.075000X0.662500X0*%
%ADD30RoundRect,0.135000X-0.185000X0.135000X-0.185000X-0.135000X0.185000X-0.135000X0.185000X0.135000X0*%
%ADD31O,0.800000X0.800000*%
%ADD32R,1.300000X0.450000*%
%ADD33O,1.800000X1.150000*%
%ADD34O,2.000000X1.450000*%
%ADD35R,1.400000X1.200000*%
G04 APERTURE END LIST*
D10*
%TO.C,SW1*%
X21010000Y-23200000D03*
X18800000Y-23200000D03*
D11*
X19900000Y-25350000D03*
X19900000Y-28350000D03*
D10*
X21010000Y-30500000D03*
X18800000Y-30500000D03*
D12*
X21660000Y-24600000D03*
X21660000Y-27600000D03*
X21660000Y-29100000D03*
%TD*%
D13*
%TO.C,H4*%
X52250000Y-20162500D03*
%TD*%
%TO.C,H3*%
X21000000Y-19500000D03*
%TD*%
%TO.C,H2*%
X23000000Y-44662500D03*
%TD*%
%TO.C,H1*%
X52750000Y-45162500D03*
%TD*%
D14*
%TO.C,C8*%
X31080000Y-35800000D03*
X30120000Y-35800000D03*
%TD*%
D15*
%TO.C,R1*%
X26990000Y-27520000D03*
X26990000Y-26500000D03*
%TD*%
D16*
%TO.C,D1*%
X42750000Y-38075000D03*
X42750000Y-36500000D03*
%TD*%
D17*
%TO.C,C9*%
X40250000Y-43562500D03*
X40250000Y-41662500D03*
%TD*%
D18*
%TO.C,FB1*%
X22750000Y-37162500D03*
X24325000Y-37162500D03*
%TD*%
D19*
%TO.C,C6*%
X26200000Y-38080000D03*
X26200000Y-37120000D03*
%TD*%
D20*
%TO.C,U1*%
X46100000Y-35362500D03*
X46100000Y-37662500D03*
D21*
X52400000Y-37662500D03*
D20*
X46100000Y-39962500D03*
%TD*%
D22*
%TO.C,J2*%
X26780000Y-19687500D03*
X29320000Y-19687500D03*
X31860000Y-19687500D03*
D23*
X34400000Y-19687500D03*
%TD*%
%TO.C,J4*%
X27920000Y-44500000D03*
D22*
X30460000Y-44500000D03*
X33000000Y-44500000D03*
X35540000Y-44500000D03*
%TD*%
D19*
%TO.C,C7*%
X29250000Y-38122500D03*
X29250000Y-37162500D03*
%TD*%
D17*
%TO.C,C10*%
X42750000Y-34400000D03*
X42750000Y-32500000D03*
%TD*%
D24*
%TO.C,C5*%
X24750000Y-28770000D03*
X24750000Y-29730000D03*
%TD*%
%TO.C,C11*%
X28200000Y-31480000D03*
X28200000Y-30520000D03*
%TD*%
D23*
%TO.C,J3*%
X46050000Y-19687500D03*
D22*
X43510000Y-19687500D03*
X40970000Y-19687500D03*
X38430000Y-19687500D03*
%TD*%
D25*
%TO.C,R5*%
X33490000Y-40800000D03*
X34510000Y-40800000D03*
%TD*%
D26*
%TO.C,C1*%
X45000000Y-23000000D03*
X45000000Y-24550000D03*
%TD*%
D27*
%TO.C,C3*%
X29770000Y-23200000D03*
X30730000Y-23200000D03*
%TD*%
D28*
%TO.C,U2*%
X31037500Y-27050000D03*
X31037500Y-27550000D03*
X31037500Y-28050000D03*
X31037500Y-28550000D03*
X31037500Y-29050000D03*
X31037500Y-29550000D03*
X31037500Y-30050000D03*
X31037500Y-30550000D03*
X31037500Y-31050000D03*
X31037500Y-31550000D03*
X31037500Y-32050000D03*
X31037500Y-32550000D03*
D29*
X32450000Y-33962500D03*
X32950000Y-33962500D03*
X33450000Y-33962500D03*
X33950000Y-33962500D03*
X34450000Y-33962500D03*
X34950000Y-33962500D03*
X35450000Y-33962500D03*
X35950000Y-33962500D03*
X36450000Y-33962500D03*
X36950000Y-33962500D03*
X37450000Y-33962500D03*
X37950000Y-33962500D03*
D28*
X39362500Y-32550000D03*
X39362500Y-32050000D03*
X39362500Y-31550000D03*
X39362500Y-31050000D03*
X39362500Y-30550000D03*
X39362500Y-30050000D03*
X39362500Y-29550000D03*
X39362500Y-29050000D03*
X39362500Y-28550000D03*
X39362500Y-28050000D03*
X39362500Y-27550000D03*
X39362500Y-27050000D03*
D29*
X37950000Y-25637500D03*
X37450000Y-25637500D03*
X36950000Y-25637500D03*
X36450000Y-25637500D03*
X35950000Y-25637500D03*
X35450000Y-25637500D03*
X34950000Y-25637500D03*
X34450000Y-25637500D03*
X33950000Y-25637500D03*
X33450000Y-25637500D03*
X32950000Y-25637500D03*
X32450000Y-25637500D03*
%TD*%
D24*
%TO.C,C12*%
X28800000Y-32600000D03*
X28800000Y-33560000D03*
%TD*%
D27*
%TO.C,C4*%
X29770000Y-24662500D03*
X30730000Y-24662500D03*
%TD*%
D30*
%TO.C,R2*%
X42800000Y-40000000D03*
X42800000Y-41020000D03*
%TD*%
D24*
%TO.C,C2*%
X41600000Y-27480000D03*
X41600000Y-26520000D03*
%TD*%
D31*
%TO.C,J1*%
X49750000Y-30162500D03*
X49750000Y-25162500D03*
D32*
X48650000Y-28962500D03*
X48650000Y-28312500D03*
X48650000Y-27662500D03*
X48650000Y-27012500D03*
X48650000Y-26362500D03*
D33*
X52500000Y-31537500D03*
D34*
X48700000Y-31387500D03*
X48700000Y-23937500D03*
D33*
X52500000Y-23787500D03*
%TD*%
D25*
%TO.C,R4*%
X30600000Y-40800000D03*
X31620000Y-40800000D03*
%TD*%
D35*
%TO.C,Y1*%
X23100000Y-34050000D03*
X25300000Y-34050000D03*
X25300000Y-32350000D03*
X23100000Y-32350000D03*
%TD*%
D15*
%TO.C,R3*%
X45000000Y-27710000D03*
X45000000Y-26690000D03*
%TD*%
M02*
